<?xml version="1.0" encoding="UTF-8"?>
<svg version="1.1" xmlns="http://www.w3.org/2000/svg" width="1024" height="1024">
<path d="M0 0 C337.92 0 675.84 0 1024 0 C1024 337.92 1024 675.84 1024 1024 C686.08 1024 348.16 1024 0 1024 C0 686.08 0 348.16 0 0 Z " fill="#FDFDFD" transform="translate(0,0)"/>
<path d="M0 0 C3.66845357 3.49109831 6.65601599 7.42411977 7.3359375 12.515625 C7.45332243 20.73256979 6.02423703 25.83510078 0.3125 31.8125 C-6.00400984 35.98378008 -13.32672028 37.4453935 -20.6875 38.83203125 C-21.49407547 38.9888588 -22.30065094 39.14568634 -23.13166809 39.30726624 C-25.75330693 39.81513625 -28.37655822 40.31403446 -31 40.8125 C-32.85642855 41.16974902 -34.71279162 41.52733843 -36.5690918 41.88525391 C-48.60556287 44.19812984 -60.65821228 46.41267628 -72.72241211 48.57617188 C-86.64339117 51.0815224 -100.5274144 53.77679536 -114.41494751 56.46029663 C-130.60063038 59.58717807 -146.79471008 62.66390466 -163 65.6875 C-177.25083044 68.34667808 -191.49051295 71.05167458 -205.71496582 73.84841919 C-215.59300239 75.78781753 -225.48303186 77.65520177 -235.3828125 79.48046875 C-236.56408722 79.69833542 -237.74536194 79.91620209 -238.96243286 80.14067078 C-244.81475314 81.21889403 -250.6678336 82.29278123 -256.52197266 83.36108398 C-271.06282875 86.02496004 -285.54197355 88.91816611 -300 92 C-300.33 98.6 -300.66 105.2 -301 112 C-293.51876581 111.34687946 -286.03792168 110.68949075 -278.55737305 110.02856445 C-276.02589443 109.80545704 -273.49432218 109.58340878 -270.96264648 109.36254883 C-256.59205843 108.10808708 -242.24684636 106.73751753 -227.91384888 105.10697937 C-215.97731799 103.75438262 -204.02323143 102.61487617 -192.0625 101.5 C-190.91182037 101.39195038 -189.76114075 101.28390076 -188.57559204 101.1725769 C-174.27264118 99.82988707 -159.96732353 98.55061837 -145.64785767 97.39837646 C-129.83510787 96.12072351 -114.04362578 94.61739249 -98.25 93.125 C-77.04551454 91.12243713 -55.83907581 89.14903199 -34.625 87.25 C-33.50677856 87.14931213 -32.38855713 87.04862427 -31.2364502 86.94488525 C-19.13152666 85.85601251 -7.02374319 84.82245829 5.09375 83.8828125 C6.16700531 83.79920471 7.24026062 83.71559692 8.34603882 83.62945557 C32.33570938 81.79983383 32.33570938 81.79983383 39 87 C43.8615313 92.11740136 45.53300094 96.42699081 45.37890625 103.40234375 C44.55825891 109.02843115 41.18927867 113.14021086 37.0625 116.875 C31.86884033 120.47876386 27.01635671 121.26394775 20.78100586 121.63842773 C20.08096876 121.68273108 19.38093166 121.72703442 18.65968132 121.77268028 C16.34513363 121.91728235 14.03007557 122.05043379 11.71484375 122.18359375 C10.07471796 122.28390921 8.43463782 122.38497347 6.79460144 122.48674011 C3.31509082 122.70119245 -0.16466628 122.91072693 -3.64471436 123.11627197 C-9.08477797 123.43767698 -14.52412187 123.77023566 -19.96337891 124.10498047 C-26.2434478 124.49092686 -32.52362725 124.87491775 -38.80401611 125.25562286 C-51.1637134 126.00527729 -63.5204604 126.79450047 -75.875 127.625 C-76.75108917 127.68357178 -77.62717834 127.74214355 -78.52981567 127.80249023 C-91.66386318 128.68200711 -104.79189174 129.63544917 -117.91854858 130.61865234 C-129.58097304 131.49070764 -141.24742176 132.28788852 -152.91796875 133.04296875 C-153.6089629 133.08776052 -154.29995705 133.1325523 -155.01189041 133.1787014 C-161.96083868 133.62903634 -168.90994689 134.07659 -175.85964489 134.51521397 C-179.07713915 134.71894958 -182.29440142 134.92630442 -185.51171875 135.1328125 C-186.6848613 135.20561935 -187.85800385 135.27842621 -189.06669617 135.35343933 C-190.15674454 135.42387955 -191.24679291 135.49431976 -192.36987305 135.56689453 C-193.31654343 135.62668488 -194.26321381 135.68647522 -195.23857117 135.74807739 C-198.19362084 136.01766385 -201.07641917 136.49775416 -204 137 C-206.23347659 137.18396522 -208.46965251 137.33679202 -210.70703125 137.46484375 C-212.00382813 137.54162354 -213.300625 137.61840332 -214.63671875 137.69750977 C-215.31782715 137.73659454 -215.99893555 137.77567932 -216.70068359 137.81594849 C-228.67509268 138.50516917 -240.63137044 139.32192661 -252.58447266 140.32006836 C-258.28336169 140.79333412 -263.9775551 141.19089865 -269.6875 141.5 C-276.87128897 141.91722111 -283.89624675 142.85673971 -291 144 C-289.27222703 150.04720539 -286.86155233 155.42651476 -284 161 C-274.58440821 179.49354735 -271.49706854 201.704034 -277 221.99609375 C-278.49236686 226.47902389 -280.18588737 230.86543622 -282.01171875 235.22265625 C-283.22349662 238.13676435 -283.22349662 238.13676435 -283 242 C-277.39931028 243.54035857 -271.87183574 244.50196657 -266.11962891 245.29199219 C-226.26225772 250.81188207 -189.06104901 267.06445574 -159.83984375 295.0703125 C-151.80580244 302.69192869 -142.16236501 305.16722611 -131.51953125 307.27734375 C-125.57114586 308.49871034 -119.79236204 310.19079876 -114 312 C-113.04931641 312.29648437 -112.09863281 312.59296875 -111.11914062 312.8984375 C-69.28404468 326.08530953 -21.77647274 344.48269598 0.9375 384.625 C14.32527717 411.11637983 4.37580334 445.39766093 -1 473 C-1.15017578 473.79245117 -1.30035156 474.58490234 -1.45507812 475.40136719 C-4.18186335 489.50293042 -9.17023407 503.03664626 -13.82958984 516.59033203 C-14.81149871 519.45085335 -15.7791177 522.31539843 -16.73828125 525.18359375 C-19.60583289 533.6697808 -22.99047464 541.8297046 -26.95458984 549.86523438 C-28.11192538 552.22855571 -29.23683983 554.60618174 -30.36328125 556.984375 C-40.11835731 577.3136133 -51.9618621 596.35190617 -66 614 C-67.16595703 615.48306641 -67.16595703 615.48306641 -68.35546875 616.99609375 C-81.19696263 633.01955071 -95.71870107 648.45080398 -112 661 C-113.00289062 661.79664063 -114.00578125 662.59328125 -115.0390625 663.4140625 C-128.2735417 673.8689755 -142.3922183 682.58182537 -157.05566406 690.88232422 C-158.69972895 691.82739316 -160.3179832 692.81714958 -161.9296875 693.81640625 C-164 695 -164 695 -166 695 C-165.95810547 695.94617188 -165.91621094 696.89234375 -165.87304688 697.8671875 C-164.46692641 732.63231338 -164.46692641 732.63231338 -174 745 C-174.57363281 745.79019531 -175.14726563 746.58039062 -175.73828125 747.39453125 C-177.37546277 749.43807764 -179.10075038 751.19966963 -181 753 C-181.680625 753.69996094 -182.36125 754.39992188 -183.0625 755.12109375 C-210.60561248 781.96632331 -254.45297318 789.17633406 -291 794 C-292.04639648 794.14421387 -293.09279297 794.28842773 -294.17089844 794.43701172 C-337.91236377 800.43611118 -383.25925804 799.42803482 -427 794 C-427.8465918 793.89993652 -428.69318359 793.79987305 -429.56542969 793.69677734 C-466.66342009 789.20315144 -513.02699453 777.60314917 -537.8125 747.625 C-546.16336006 736.16226284 -547.55758346 724.32467879 -548.23046875 710.5625 C-548.26688477 709.84860107 -548.30330078 709.13470215 -548.34082031 708.39916992 C-548.43207221 706.42964973 -548.49619334 704.45892654 -548.55859375 702.48828125 C-549.04235754 698.66526297 -549.91551405 696.23308025 -552 693 C-553.90111592 691.63277247 -553.90111592 691.63277247 -556.125 690.9375 C-564.37111518 687.90184221 -571.34062323 683.23493487 -578.1875 677.8125 C-583.39995684 673.74926879 -588.64308851 669.78263974 -594.0625 666 C-606.85542818 656.98822378 -618.73067397 646.84245762 -630 636 C-630.52078125 635.50113281 -631.0415625 635.00226562 -631.578125 634.48828125 C-638.6074445 627.71995133 -644.94574394 620.66669611 -651 613 C-651.93140122 611.86798413 -652.86511786 610.73787054 -653.80078125 609.609375 C-677.64529873 580.67599314 -694.57868893 547.22727544 -707 512 C-707.34659668 511.0404541 -707.69319336 510.0809082 -708.05029297 509.09228516 C-716.58886569 485.393635 -721.95946581 460.9629935 -725.63037109 436.06762695 C-725.98204832 433.81328232 -725.98204832 433.81328232 -727 431 C-729.07996874 416.90243408 -730.83212911 398.91465158 -724 386 C-723.59910156 385.12988281 -723.19820312 384.25976562 -722.78515625 383.36328125 C-711.91242267 361.27114722 -690.20022828 347.03329188 -669 336 C-668.36320312 335.66790527 -667.72640625 335.33581055 -667.0703125 334.99365234 C-644.95768948 323.64965109 -621.0677678 316.52311609 -597.21191406 309.89453125 C-596.15198242 309.59933594 -595.09205078 309.30414063 -594 309 C-592.76491699 308.6692749 -591.52983398 308.3385498 -590.25732422 307.99780273 C-586.65237905 306.8935147 -584.71000306 305.51979889 -581.875 303.0625 C-580.91722656 302.25039063 -579.95945312 301.43828125 -578.97265625 300.6015625 C-577.05278515 298.92135993 -575.14310768 297.22940464 -573.24609375 295.5234375 C-546.46553752 271.91660897 -512.95550726 254.08704718 -478.453125 245 C-471.65221475 243.22054473 -471.65221475 243.22054473 -466.36328125 238.90625 C-466.01652344 238.1121875 -465.66976563 237.318125 -465.3125 236.5 C-464.92191406 235.61828125 -464.53132813 234.7365625 -464.12890625 233.828125 C-463.75636719 232.89484375 -463.38382812 231.9615625 -463 231 C-462.61714844 230.04609375 -462.23429687 229.0921875 -461.83984375 228.109375 C-459.11505216 220.96045942 -457.84785199 214.55638135 -457.75 206.875 C-457.72421875 205.67617188 -457.6984375 204.47734375 -457.671875 203.2421875 C-458.0772563 193.41169087 -461.93298684 184.04114226 -465.5 175 C-469.91256363 163.81568031 -473.72676427 153.16657227 -473 141 C-474.14597656 141.04640625 -475.29195312 141.0928125 -476.47265625 141.140625 C-478.00257791 141.17816909 -479.53252801 141.21456641 -481.0625 141.25 C-481.81466797 141.28351563 -482.56683594 141.31703125 -483.34179688 141.3515625 C-489.08454675 141.45100406 -492.29400144 140.3277712 -497 137 C-498.7421875 135.18359375 -498.7421875 135.18359375 -499.875 133.4375 C-500.26429688 132.85871094 -500.65359375 132.27992188 -501.0546875 131.68359375 C-503.93136116 126.56026173 -503.76292667 120.6787655 -503 115 C-500.12075278 108.99995797 -495.02589111 104.15097802 -488.81005859 101.78662109 C-487.60172363 101.45227051 -486.39338867 101.11791992 -485.1484375 100.7734375 C-484.47311981 100.58420715 -483.79780212 100.39497681 -483.10202026 100.20001221 C-480.86316915 99.5780933 -478.61960869 98.97578064 -476.375 98.375 C-474.79002339 97.9419519 -473.20506279 97.50884518 -471.62011719 97.07568359 C-454.58840487 92.46856872 -437.39180586 88.55132375 -420.18606567 84.65682983 C-414.93383915 83.46158803 -409.70478957 82.19409591 -404.484375 80.8671875 C-398.0230477 79.22613781 -391.53680469 77.80580707 -385 76.5 C-377.07393983 74.88290329 -369.24038085 73.10502824 -361.40625 71.08984375 C-351.00232552 68.46669518 -340.47827335 66.30267623 -330 64 C-312.667302 60.1875925 -295.36421896 56.2605074 -278.07714844 52.24682617 C-261.67041288 48.44033803 -245.22901232 44.8172287 -228.75576782 41.31033325 C-213.87604983 38.14106811 -199.01265086 34.90886747 -184.16748047 31.58175659 C-168.74216044 28.12859627 -153.28132849 24.84605668 -137.8137207 21.58813477 C-126.57301176 19.21591056 -115.36139257 16.73910436 -104.16259766 14.17651367 C-91.04029208 11.17709925 -77.87340949 8.37573913 -64.70733643 5.57592773 C-62.85023196 5.18086861 -60.99326462 4.78516455 -59.13641357 4.38891602 C-53.17205435 3.11663129 -47.20529097 1.85666395 -41.23516846 0.61169434 C-39.30456111 0.20763154 -37.37465062 -0.19977691 -35.44549561 -0.61071777 C-32.73251211 -1.18765633 -30.0171117 -1.75156061 -27.30078125 -2.3125 C-26.50739853 -2.48396545 -25.71401581 -2.65543091 -24.89659119 -2.83209229 C-16.08769137 -4.61981861 -7.60621558 -5.52255296 0 0 Z " fill="#54331C" transform="translate(828,75)"/>
<path d="M0 0 C-0.87105751 15.85925391 -4.48618779 30.84778154 -9 46 C-9.42901611 47.47303589 -9.42901611 47.47303589 -9.86669922 48.97583008 C-12.23901091 56.94533341 -15.08173972 64.62726441 -18.25 72.3125 C-18.73670166 73.49602051 -19.22340332 74.67954102 -19.72485352 75.89892578 C-23.43569069 84.82669514 -27.36289499 93.51778576 -32 102 C-32.650896 103.20100342 -32.650896 103.20100342 -33.31494141 104.42626953 C-44.11457305 124.22127188 -56.67831413 141.98429002 -71.87890625 158.66015625 C-73.80786335 160.78804815 -75.69036353 162.94720859 -77.5625 165.125 C-107.53748942 199.45119756 -151.56309256 225.83696046 -194.51171875 239.81640625 C-198.01801224 240.95123464 -198.01801224 240.95123464 -201.37109375 242.47265625 C-213.26076693 247.47681364 -226.21013344 250.20638539 -238.8125 252.75 C-239.78815918 252.94835449 -240.76381836 253.14670898 -241.76904297 253.35107422 C-250.13078193 254.97561682 -258.54322901 256.02956979 -267 257 C-268.23161865 257.144375 -269.4632373 257.28875 -270.73217773 257.4375 C-322.68485011 263.26152884 -381.43445388 264.55241963 -432 250 C-434.05298037 249.4451138 -436.10637421 248.89175534 -438.16015625 248.33984375 C-473.19025877 238.71348303 -505.80126403 223.94282466 -536.0625 203.875 C-536.62804596 203.5014035 -537.19359192 203.12780701 -537.77627563 202.7428894 C-545.5691616 197.57457482 -552.83799748 192.00278172 -560 186 C-560.90500244 185.2769165 -561.81000488 184.55383301 -562.74243164 183.80883789 C-569.56730113 178.35558892 -575.84289409 172.50598387 -582 166.3125 C-582.47900757 165.83233429 -582.95801514 165.35216858 -583.45153809 164.85745239 C-590.95026242 157.32296779 -597.73005326 149.57319248 -604 141 C-604.8231178 139.94918348 -605.65131123 138.9023242 -606.484375 137.859375 C-629.29657036 109.22241264 -646.0281661 74.99318127 -656.1484375 39.87890625 C-656.84717914 37.51664666 -657.62137796 35.21842152 -658.43359375 32.89453125 C-660.27987004 27.39641218 -661.48784 21.79348413 -662.6875 16.125 C-662.91244141 15.09375 -663.13738281 14.0625 -663.36914062 13 C-665 5.40584631 -665 5.40584631 -665 2 C-659.62825209 0.66664175 -659.62825209 0.66664175 -656.89453125 2.1171875 C-656.20746094 2.69726562 -655.52039063 3.27734375 -654.8125 3.875 C-630.38739625 22.16660815 -596.20954946 29.66457512 -567.0625 36.9375 C-566.01085663 37.20079102 -564.95921326 37.46408203 -563.8757019 37.73535156 C-545.68208738 42.27139716 -527.50808892 46.02130675 -509 49 C-506.7342155 49.37795132 -504.46858508 49.75682768 -502.203125 50.13671875 C-489.64004127 52.21781308 -477.0436986 54.02236175 -464.41748047 55.67456055 C-462.52750762 55.92898731 -460.64087098 56.20822688 -458.75584412 56.49702454 C-455.31405911 56.9579418 -451.95623089 57.22035269 -448.48901367 57.37304688 C-447.24049118 57.42980591 -445.99196869 57.48656494 -444.70561218 57.54504395 C-444.0480512 57.57332779 -443.39049023 57.60161163 -442.71300316 57.63075256 C-440.63023773 57.72037356 -438.54769779 57.81421078 -436.46516418 57.90905762 C-432.03944153 58.10982932 -427.61348441 58.30509846 -423.1875 58.5 C-418.06348136 58.72622999 -412.9395789 58.95478465 -407.81585121 59.18751526 C-405.78107109 59.2789755 -403.74616483 59.36707597 -401.71122742 59.45495605 C-400.45324844 59.51171509 -399.19526947 59.56847412 -397.89916992 59.62695312 C-396.80553635 59.67501099 -395.71190277 59.72306885 -394.58512878 59.77258301 C-391.77588769 59.95078279 -389.01289123 60.20782843 -386.21694946 60.51423645 C-381.01053195 61.0494724 -375.86021091 61.14787874 -370.62963867 61.14526367 C-369.64397919 61.14862228 -368.6583197 61.1519809 -367.64279175 61.15544128 C-364.40117097 61.1648912 -361.15960243 61.16689311 -357.91796875 61.16796875 C-355.62193278 61.17119145 -353.32589701 61.17455624 -351.02986145 61.17805481 C-346.20748421 61.18403563 -341.38512483 61.18589639 -336.56274414 61.18530273 C-331.69421609 61.18522229 -326.82578376 61.19203206 -321.95727539 61.20581055 C-293.57456576 61.28488628 -265.31437894 61.10399691 -237 59 C-235.91439789 58.91958466 -234.82879578 58.83916931 -233.71029663 58.75631714 C-227.63167828 58.29073575 -221.5655186 57.73631204 -215.5 57.125 C-214.63841278 57.04073761 -213.77682556 56.95647522 -212.88912964 56.86965942 C-197.19321053 55.33323005 -181.5947537 53.3584817 -166 51 C-164.28397016 50.75180088 -162.5678326 50.5043448 -160.8515625 50.2578125 C-149.08694922 48.52861145 -137.48404415 46.10666498 -125.86132812 43.60986328 C-123.22771812 43.04853582 -120.59164708 42.5025346 -117.953125 41.96484375 C-83.17703073 34.86316163 -32.05301787 0 0 0 Z " fill="#F4841B" transform="translate(800,521)"/>
<path d="M0 0 C0.43692179 7.96168591 0.69369572 14.33079311 -4 21 C-4.36609375 21.56847656 -4.7321875 22.13695312 -5.109375 22.72265625 C-22.61848025 46.44641305 -66.57267285 53.95154202 -93.57568359 58.10107422 C-160.85010208 68.11415844 -250.80275786 71.22509787 -309.0625 31 C-315.72457625 25.88072036 -321.61937242 20.26217806 -324 12 C-324.21956575 8.3172836 -324.17984507 4.68349341 -324 1 C-316.1857233 1.49562009 -309.48279928 3.65811894 -302.125 6.25 C-225.62638472 32.34306807 -136.19001409 34.59251641 -57.60009766 16.58496094 C-55.159474 16.03587791 -52.71485361 15.52875771 -50.26171875 15.0390625 C-35.13387806 11.970525 -20.32784471 7.26425801 -6.27734375 0.84765625 C-4 0 -4 0 0 0 Z " fill="#F3831B" transform="translate(633,783)"/>
<path d="M0 0 C21.44695024 20.10866055 33.15067058 50.55675466 38.875 78.8125 C38.92101899 80.47853122 38.93492002 82.1469108 38.875 83.8125 C32.86191327 86.95570443 28.91348426 87.94288484 22.125 87.875 C20.95453125 87.86597656 19.7840625 87.85695313 18.578125 87.84765625 C17.24007812 87.83025391 17.24007812 87.83025391 15.875 87.8125 C15.54628906 86.23275391 15.54628906 86.23275391 15.2109375 84.62109375 C9.93268401 60.21914647 -1.12581425 33.83405078 -22.421875 19.23828125 C-40.19865631 8.00041154 -60.96947681 3.77023048 -81.64770508 7.89306641 C-107.40836639 13.79848337 -133.40989793 28.62592918 -148.33203125 50.85546875 C-154.48985356 61.01118005 -159.02603328 71.32985519 -162.125 82.8125 C-162.70297817 84.75160424 -163.28586096 86.68925745 -163.875 88.625 C-164.29224111 90.02066173 -164.70901222 91.41646419 -165.125 92.8125 C-168.22914702 92.84153577 -171.33325909 92.8593107 -174.4375 92.875 C-175.31857422 92.88337891 -176.19964844 92.89175781 -177.10742188 92.90039062 C-177.95498047 92.90361328 -178.80253906 92.90683594 -179.67578125 92.91015625 C-180.45606689 92.91539307 -181.23635254 92.92062988 -182.0402832 92.92602539 C-184.125 92.8125 -184.125 92.8125 -187.125 91.8125 C-188.70277827 65.39932307 -172.66618425 38.0615026 -155.93188477 18.9140625 C-117.51652702 -23.8631109 -45.99061254 -38.94251557 0 0 Z " fill="#FBC730" transform="translate(580.125,462.1875)"/>
<path d="M0 0 C3.18623467 2.48338879 6.31740702 4.96845184 9 8 C9 8.66 9 9.32 9 10 C8.49138428 10.22139648 7.98276855 10.44279297 7.45874023 10.67089844 C5.11653067 11.69320496 2.7770219 12.72155857 0.4375 13.75 C-0.36236328 14.09804688 -1.16222656 14.44609375 -1.98632812 14.8046875 C-5.75401251 16.46554429 -9.26776816 18.13242519 -12.71484375 20.390625 C-16 22 -16 22 -19.09765625 21.42578125 C-21.90118861 20.04854126 -24.68616682 18.6665855 -27.4375 17.1875 C-50.061223 5.73564021 -79.176225 2.50542305 -103.640625 9.6628418 C-114.92212242 13.375915 -124.99980986 19.27021444 -134 27 C-134.63808594 27.495 -135.27617187 27.99 -135.93359375 28.5 C-163.82552092 50.94823112 -175.24452956 90.95515997 -184 124 C-192.85642157 124.42397763 -201.90775957 124.04612021 -210 120 C-210.17891168 115.14882892 -209.74246088 111.36540566 -208.1640625 106.78125 C-207.76429199 105.61295654 -207.36452148 104.44466309 -206.95263672 103.2409668 C-206.5145166 102.00644775 -206.07639648 100.77192871 -205.625 99.5 C-205.40169006 98.86260895 -205.17838013 98.2252179 -204.94830322 97.56851196 C-200.5770321 85.10663668 -195.58217197 72.97123439 -190 61 C-189.65227539 60.24944336 -189.30455078 59.49888672 -188.94628906 58.72558594 C-182.02720523 43.93562234 -173.70622325 30.35173227 -163 18 C-162.50242187 17.36964844 -162.00484375 16.73929687 -161.4921875 16.08984375 C-157.07224696 10.54597548 -151.59027472 6.31381584 -146 2 C-145.21753906 1.39027344 -144.43507813 0.78054688 -143.62890625 0.15234375 C-102.61119961 -30.21320973 -41.33187494 -28.70269093 0 0 Z " fill="#FBC831" transform="translate(458,415)"/>
<path d="M0 0 C43.65072268 0.55918348 86.5303852 20.93633842 116.96484375 51.47485352 C128.4158756 63.31270222 137.49423064 76.73168495 145.3046875 91.18359375 C145.65869629 91.83650391 146.01270508 92.48941406 146.37744141 93.16210938 C158.73235769 116.23698822 167.04093853 141.36232996 171.3046875 167.18359375 C171.43488281 167.96347656 171.56507813 168.74335938 171.69921875 169.546875 C172.40958274 174.42470774 172.40708352 179.26858473 172.3046875 184.18359375 C164.59761862 187.79365869 158.81265931 189.32779666 150.3046875 189.18359375 C150.21832031 188.56097656 150.13195312 187.93835938 150.04296875 187.296875 C143.34229248 143.21994946 125.57647435 99.62789889 93.3046875 68.18359375 C92.80453125 67.62671875 92.304375 67.06984375 91.7890625 66.49609375 C74.15424513 47.48116024 43.93430672 32.81539086 18.33203125 29.51953125 C17.43468262 29.40061523 16.53733398 29.28169922 15.61279297 29.15917969 C13.81371268 28.9294554 12.01176481 28.72096279 10.20751953 28.53613281 C3.92162363 27.75541214 3.92162363 27.75541214 0.84765625 24.90625 C-3.41536598 17.38390444 -5.78748952 9.88520082 -4.6953125 1.18359375 C-3.6953125 0.18359375 -3.6953125 0.18359375 0 0 Z " fill="#FBC730" transform="translate(540.6953125,342.81640625)"/>
<path d="M0 0 C1.16144531 0.00902344 2.32289063 0.01804688 3.51953125 0.02734375 C4.39996094 0.03894531 5.28039062 0.05054688 6.1875 0.0625 C6.20731934 0.89797363 6.22713867 1.73344727 6.24755859 2.59423828 C6.32679229 5.76665045 6.41350283 8.93875603 6.50488281 12.11083984 C6.56089734 14.12973624 6.60869483 16.14885538 6.65625 18.16796875 C7.00572542 29.99188719 7.86723243 41.70302061 11.8125 52.9375 C12.06829834 53.68725098 12.32409668 54.43700195 12.58764648 55.20947266 C14.95071646 61.87993733 18.02600039 68.0984354 21.29296875 74.36328125 C30.50596665 92.08553831 34.25934058 112.18277781 28.34130859 131.77587891 C25.97014483 138.5474469 22.92914956 144.97247326 19.57421875 151.3125 C12.97125598 164.40682617 11.19944568 177.67120819 15.1328125 191.90625 C16.54654925 196.13698811 18.2626122 200.22780945 19.98364258 204.33959961 C22.59639955 210.74155104 24.02213305 217.25293043 25.1875 224.0625 C25.5278125 225.980625 25.5278125 225.980625 25.875 227.9375 C26.13513864 230.66409033 26.23104874 233.36339238 26.2421875 236.1015625 C26.24774658 237.09857178 26.24774658 237.09857178 26.25341797 238.11572266 C26.24878623 241.43138468 26.21512958 244.74694987 26.1875 248.0625 C13.8125 248.5575 13.8125 248.5575 1.1875 249.0625 C1.105 245.9275 1.0225 242.7925 0.9375 239.5625 C0.3514638 225.48347057 -3.14350045 213.36796655 -8.36987305 200.3684082 C-14.13900837 185.90687737 -14.47360463 171.60202825 -8.5 157.0625 C-7.61793577 155.05638932 -6.72208273 153.0562845 -5.8125 151.0625 C-5.37292969 150.08667969 -4.93335938 149.11085938 -4.48046875 148.10546875 C-2.7226022 144.22329217 -0.94937013 140.35144806 0.875 136.5 C7.13573925 120.10282577 5.96777418 99.17038863 -1 83.25 C-2.80516445 79.24052971 -4.69816166 75.27859467 -6.65234375 71.33984375 C-14.14979111 56.11924673 -17.68130609 41.62126672 -17.46435547 24.6340332 C-17.43694293 22.07295428 -17.46459354 19.51604545 -17.49609375 16.95507812 C-17.49279879 15.31509455 -17.4864116 13.67511356 -17.4765625 12.03515625 C-17.48668365 11.27590347 -17.49680481 10.5166507 -17.50723267 9.73439026 C-17.45947266 7.60571289 -17.45947266 7.60571289 -16.8125 4.0625 C-11.92308964 -0.18373601 -6.1998847 -0.0626251 0 0 Z " fill="#FBC630" transform="translate(495.8125,166.9375)"/>
<path d="M0 0 C0.81645473 3.20734009 1.62744888 6.41603716 2.4375 9.625 C2.78264648 10.98044922 2.78264648 10.98044922 3.13476562 12.36328125 C4.27532511 16.89245948 5.33107794 21.3713669 6 26 C4.8140625 26.29132813 3.628125 26.58265625 2.40625 26.8828125 C-25.63404363 33.91620424 -48.31766876 45.71694312 -70 65 C-70.65484375 65.58136719 -71.3096875 66.16273438 -71.984375 66.76171875 C-101.75843659 94.90529602 -120.4544641 139.78161681 -129.17578125 179.0078125 C-130 182 -130 182 -132 184 C-138.82538775 184.38707303 -145.12570016 182.35493417 -151 179 C-153 177 -153 177 -153.27734375 173.9296875 C-152.95564021 169.37146556 -151.93019316 165.46485452 -150.5625 161.125 C-150.16260864 159.83384277 -150.16260864 159.83384277 -149.75463867 158.51660156 C-139.55869829 126.14542719 -126.58596871 95.19295191 -106 68 C-105.38125 67.15695312 -104.7625 66.31390625 -104.125 65.4453125 C-82.04224474 36.41410407 -49.6755914 17.70340976 -16.375 4.25 C-15.31418213 3.81945312 -14.25336426 3.38890625 -13.16040039 2.9453125 C-8.56432489 1.14517983 -4.99308813 -0.25295627 0 0 Z " fill="#FBC730" transform="translate(355,345)"/>
<path d="M0 0 C1.16990479 0.00676758 2.33980957 0.01353516 3.54516602 0.02050781 C4.43647217 0.02920898 5.32777832 0.03791016 6.24609375 0.046875 C6.2303833 0.97322754 6.21467285 1.89958008 6.19848633 2.85400391 C6.14670316 6.36171301 6.10943144 9.8690036 6.08129883 13.37695312 C6.06640944 14.88190201 6.04609105 16.38680911 6.01977539 17.89160156 C5.71426579 35.83879326 9.79776529 51.45555547 17.30200195 67.77783203 C22.57277433 79.27266561 25.4513036 89.44940492 25.62109375 102.171875 C25.63527344 102.98317871 25.64945312 103.79448242 25.6640625 104.63037109 C25.57476878 115.71395357 21.44232138 125.50757406 17.24609375 135.609375 C12.51591355 147.03832511 8.67679016 156.86523153 8.80859375 169.359375 C8.81616699 170.37193359 8.82374023 171.38449219 8.83154297 172.42773438 C9.00279666 180.2229024 10.20897781 186.83142379 13.24609375 194.046875 C14.05981213 196.03982139 14.86803333 198.03488992 15.67333984 200.03125 C16.20710601 201.33889792 16.75360833 202.64144653 17.31494141 203.9375 C18.79998635 207.4519472 19.56443636 210.22676374 19.24609375 214.046875 C9.97038133 211.56230917 -3.49343295 206.61362276 -8.94140625 198.171875 C-9.59016877 196.81734573 -10.19138382 195.43943052 -10.75390625 194.046875 C-11.42099609 192.67595703 -11.42099609 192.67595703 -12.1015625 191.27734375 C-18.21405974 178.55858208 -19.43630926 162.2159246 -14.75390625 148.734375 C-12.90038641 144.30711047 -10.77834541 140.01214325 -8.69140625 135.69140625 C0.14458211 117.33723926 2.52319722 97.69409958 -4.00439453 78.07714844 C-5.67815921 73.5432634 -7.70671166 69.16329485 -9.74438477 64.78369141 C-15.37795888 52.59148996 -18.95918192 40.3470247 -18.87890625 26.859375 C-18.87407227 26.01947021 -18.86923828 25.17956543 -18.86425781 24.31420898 C-18.70260667 7.54290258 -18.70260667 7.54290258 -16.12890625 3.484375 C-10.70445847 0.2011566 -6.2423875 -0.04684719 0 0 Z " fill="#FBC732" transform="translate(448.75390625,176.953125)"/>
<path d="M0 0 C26.92603859 0 50.51304599 14.64032803 70 32 C70.66773438 32.59425781 71.33546875 33.18851562 72.0234375 33.80078125 C95.2973584 55.81812896 107.745518 88.65080914 116 118.8125 C116.29076416 119.86679199 116.58152832 120.92108398 116.88110352 122.00732422 C118.62715208 128.6648282 119.60646821 135.12930818 120 142 C113.26775845 145.09683111 107.60097459 146.13878546 100.125 146.0625 C98.97257813 146.05347656 97.82015625 146.04445313 96.6328125 146.03515625 C95.76398438 146.02355469 94.89515625 146.01195312 94 146 C93.65388672 144.59814453 93.65388672 144.59814453 93.30078125 143.16796875 C92.60535966 140.35869782 91.90042262 137.55196262 91.19140625 134.74609375 C90.40644735 131.63899151 89.64623544 128.5273217 88.90234375 125.41015625 C83.1946837 101.99936895 73.57918259 78.6084681 58 60 C57.278125 59.0925 56.55625 58.185 55.8125 57.25 C41.33592575 40.0346144 20.84782077 31.02242384 0 24 C0 16.08 0 8.16 0 0 Z " fill="#FBC830" transform="translate(548,396)"/>
<path d="M0 0 C-0.01571045 0.63800537 -0.0314209 1.27601074 -0.04760742 1.93334961 C-0.5499223 25.53790983 3.20846254 44.05946628 12.18237305 65.8840332 C18.12672939 80.4333074 19.78211279 97.00264496 14 112 C12.18015428 116.20007077 10.26126504 120.35434881 8.35009766 124.51342773 C0.56472609 141.57938528 -2.06812244 158.17307387 4.125 176.21484375 C5 179 5 179 5 183 C-2.92 182.67 -10.84 182.34 -19 182 C-25.87435887 160.26815584 -24.90000161 144.11480187 -15.9375 123.25 C-8.63201707 106.20721817 -5.19988367 88.0671569 -12.14257812 70.08105469 C-14.46238255 64.45064098 -16.91199504 58.87017877 -19.47021484 53.34423828 C-24.45082369 42.40276424 -25.38120964 32.59608273 -25.4375 20.625 C-25.47037109 19.36816406 -25.50324219 18.11132812 -25.53710938 16.81640625 C-25.54419922 15.61113281 -25.55128906 14.40585938 -25.55859375 13.1640625 C-25.57204834 12.07561035 -25.58550293 10.9871582 -25.59936523 9.86572266 C-25 7 -25 7 -22.6262207 4.68017578 C-19.97210273 2.98215218 -17.7878271 2.04942818 -14.75 1.25 C-13.87859375 1.00765625 -13.0071875 0.7653125 -12.109375 0.515625 C-8.05083178 -0.15739976 -4.10333906 -0.10207311 0 0 Z " fill="#FBC730" transform="translate(405,187)"/>
<path d="M0 0 C11.68238748 10.21374449 22.09453796 28.4555262 23.234375 44.2578125 C23.24742884 46.13103915 23.16641044 48.00461204 23.0625 49.875 C18.69675557 50.93647512 14.40768059 51.09243038 9.9375 51.125 C9.22207031 51.145625 8.50664063 51.16625 7.76953125 51.1875 C2.6196304 51.22600393 2.6196304 51.22600393 0.21484375 49.7109375 C-1.2877926 47.3169067 -2.25507104 44.89630589 -3.25 42.25 C-6.64966052 33.85740522 -10.57892309 26.13992961 -18.9375 21.875 C-27.82269639 18.30573307 -38.4216619 18.43644458 -47.3125 21.9375 C-60.73573249 28.43144221 -70.91799194 38.20529572 -79.05078125 50.625 C-81.9820775 54.12070733 -84.599319 54.74603888 -89.05859375 55.17578125 C-100.12804985 55.21489594 -100.12804985 55.21489594 -104.9375 51.875 C-105.9375 50.875 -105.9375 50.875 -106.09765625 49.15234375 C-105.48648578 34.5086994 -95.39027066 20.88329196 -85.12109375 11.2265625 C-62.0084923 -8.8425282 -26.99695644 -18.84693186 0 0 Z " fill="#FBC62F" transform="translate(547.9375,503.125)"/>
<path d="M0 0 C-1.46024261 4.07547937 -3.45619701 7.74621798 -5.52709961 11.53125 C-12.18725884 23.77939466 -17.42978071 36.41503087 -22.546875 49.36767578 C-24.07015954 53.17537528 -25.6353664 56.96311884 -27.21875 60.74609375 C-27.6227578 61.71284531 -27.6227578 61.71284531 -28.03492737 62.6991272 C-29.33286878 65.80313903 -30.63467877 68.9054274 -31.94116211 72.00585938 C-34.64254883 78.48143895 -37.06148819 84.94831042 -39.12524414 91.65649414 C-40 94 -40 94 -42 96 C-54.01877837 97.14533594 -65.20186541 87.23488307 -74 80 C-79.45389971 75.35667988 -82.84028214 70.41083253 -86 64 C-86.33 63.34 -86.66 62.68 -87 62 C-87.95394528 53.5865154 -86.24299241 48.21657575 -81.15234375 41.59765625 C-65.50927399 23.17233452 -42.30993066 13.75499302 -20 6 C-19.12988281 5.69658691 -18.25976562 5.39317383 -17.36328125 5.08056641 C-2.68913586 0 -2.68913586 0 0 0 Z " fill="#F4851C" transform="translate(217,415)"/>
<path d="M0 0 C0.99 1.485 0.99 1.485 2 3 C1.50371094 3.4846875 1.00742187 3.969375 0.49609375 4.46875 C-3.73811507 8.64671696 -7.77593129 12.92141432 -11.65234375 17.43359375 C-12.40849619 18.31248398 -13.18017851 19.18017851 -14 20 C-15.6624143 20.12149787 -17.32953852 20.17968511 -18.99609375 20.2109375 C-20.03056641 20.23929687 -21.06503906 20.26765625 -22.13085938 20.296875 C-24.29997657 20.34812408 -26.46926589 20.39262626 -28.63867188 20.4296875 C-43.41696474 20.86675346 -54.52787985 25.77169135 -64.95800781 36.35327148 C-78.67544478 51.11336977 -86.62825792 72.46851501 -91.125 91.75 C-91.41375 92.8225 -91.7025 93.895 -92 95 C-98.30351943 98.15175971 -108.44958942 95.59334311 -115 94 C-115.99 93.34 -116.98 92.68 -118 92 C-117.38461973 85.25966296 -115.22729198 79.17692176 -113 72.8125 C-112.59845703 71.66354248 -112.19691406 70.51458496 -111.78320312 69.33081055 C-104.172803 47.94362721 -95.2678511 28.12129388 -79 12 C-78.36835938 11.33484375 -77.73671875 10.6696875 -77.0859375 9.984375 C-57.89519998 -8.78365905 -23.1445209 -12.89207197 0 0 Z " fill="#FBC731" transform="translate(415,451)"/>
<path d="M0 0 C22.38369591 4.55261612 45.00929678 12.95067736 65 24 C66.08152344 24.58394531 67.16304687 25.16789062 68.27734375 25.76953125 C75.07044354 29.5644155 81.14035433 33.88298303 87 39 C87.99 39.86431641 87.99 39.86431641 89 40.74609375 C95.20288485 46.53456172 99.23508992 52.39704643 99.5625 61.0625 C99.1485736 69.64602649 95.85000897 74.75063265 89.671875 80.51953125 C89.12015625 81.00808594 88.5684375 81.49664062 88 82 C87.2575 82.66 86.515 83.32 85.75 84 C84.88375 84.495 84.88375 84.495 84 85 C80.64720763 83.88240254 80.2937453 83.35085209 78.375 80.5625 C64.75744192 61.85084317 46.22737468 49.08608726 25.98950195 38.39819336 C25.26722412 38.01155518 24.54494629 37.62491699 23.80078125 37.2265625 C23.16309814 36.89221191 22.52541504 36.55786133 21.8684082 36.21337891 C17.59530888 33.43834903 15.32500198 30.13714655 13.125 25.60546875 C12.61453125 24.56712891 12.1040625 23.52878906 11.578125 22.45898438 C11.05734375 21.37939453 10.5365625 20.29980469 10 19.1875 C5.26139214 9.45453183 5.26139214 9.45453183 0 0 Z " fill="#F4841C" transform="translate(702,412)"/>
<path d="M0 0 C-0.37511719 0.79019531 -0.75023437 1.58039063 -1.13671875 2.39453125 C-7.44592093 16.30020357 -10.96256215 30.66022522 -13.01245117 45.77026367 C-13.56951476 49.79621497 -14.25727324 53.277239 -16 57 C-29.87936259 57.5559982 -29.87936259 57.5559982 -35 54 C-36 53 -36 53 -36.21484375 49.90234375 C-35.98698184 45.76354285 -35.05794875 42.37893501 -33.5625 38.5625 C-33.29735596 37.87655762 -33.03221191 37.19061523 -32.7590332 36.48388672 C-26.99950658 22.13490436 -19.24546108 8.05742739 -5.82421875 -0.35546875 C-3.5301685 -1.16600042 -2.26268836 -0.78419883 0 0 Z " fill="#F9C633" transform="translate(384,496)"/>
<path d="M0 0 C11.28364323 5.02709529 23.51352091 16.00911215 29 27 C28.67 27.99 28.34 28.98 28 30 C25.60076523 31.1892631 23.3064957 32.18413717 20.8125 33.125 C19.8215332 33.52138672 19.8215332 33.52138672 18.81054688 33.92578125 C14.87652741 35.45589346 11.19278755 36.36442577 7 37 C6.0006427 32.05257386 5.00379021 27.10465223 4.00927734 22.15625 C3.67045149 20.47219128 3.33093603 18.78827115 2.99072266 17.10449219 C2.50242566 14.68720849 2.01659361 12.26944068 1.53125 9.8515625 C1.37813354 9.0963028 1.22501709 8.34104309 1.06726074 7.56289673 C0 2.22774341 0 2.22774341 0 0 Z " fill="#F3841C" transform="translate(732,481)"/>
<path d="M0 0 C4.5140729 2.9515092 7.192512 5.89650446 9 11 C8.6875 13.875 8.6875 13.875 8 16 C2.94401931 16.78648589 -2.07711611 17.27784291 -7.1875 17.5625 C-7.92347412 17.6049585 -8.65944824 17.64741699 -9.41772461 17.69116211 C-15.61427364 18.02587408 -21.79480729 18.1076045 -28 18 C-25.22946783 10.28208894 -20.1350839 6.35357215 -13 2.5625 C-8.48906898 0.47014796 -5.01531049 -1.10336831 0 0 Z " fill="#F8C52F" transform="translate(519,540)"/>
<path d="M0 0 C0.66 0 1.32 0 2 0 C2 0.66 2 1.32 2 2 C4.97 2 7.94 2 11 2 C11 2.66 11 3.32 11 4 C7.04 4 3.08 4 -1 4 C-0.67 2.68 -0.34 1.36 0 0 Z " fill="#D9B133" transform="translate(492,554)"/>
<path d="M0 0 C0.66 0.66 1.32 1.32 2 2 C-0.64 4.64 -3.28 7.28 -6 10 C-6 6.41087588 -5.33563446 5.89142971 -3 3.3125 C-2.443125 2.68988281 -1.88625 2.06726563 -1.3125 1.42578125 C-0.879375 0.95527344 -0.44625 0.48476563 0 0 Z " fill="#5D391E" transform="translate(729,678)"/>
<path d="M0 0 C0 3 0 3 -1.3125 4.38671875 C-2.875 5.59114583 -4.4375 6.79557292 -6 8 C-6 5 -6 5 -4.6875 3.61328125 C-3.125 2.40885417 -1.5625 1.20442708 0 0 Z " fill="#5B3B26" transform="translate(335,179)"/>
</svg>
